<?xml version="1.0" standalone="no"?>
<!DOCTYPE svg PUBLIC "-//W3C//DTD SVG 20010904//EN" "http://www.w3.org/TR/2001/REC-SVG-20010904/DTD/svg10.dtd">
<!-- Created using Krita: https://krita.org -->
<svg xmlns="http://www.w3.org/2000/svg" 
    xmlns:xlink="http://www.w3.org/1999/xlink"
    xmlns:krita="http://krita.org/namespaces/svg/krita"
    xmlns:sodipodi="http://sodipodi.sourceforge.net/DTD/sodipodi-0.dtd"
    width="595.2pt"
    height="1321.92pt"
    viewBox="0 0 595.2 1321.92">
<defs/>
<path id="shape0" transform="translate(18.9511001120488, -24.0344970227632)" fill="none" stroke="#40a56c" stroke-width="25.1879424" stroke-linecap="square" stroke-linejoin="bevel" d="M535.486 0C534.927 18.9939 544.789 34.2966 538.048 54.26C471.895 250.172 184.197 249.174 64.5931 399.855C40.9332 429.662 25.5726 467.196 12.5506 502.609C-61.9318 705.165 214.107 715.821 340.599 757.642C363.501 765.214 447.724 808.005 454.192 831.816C465.677 874.1 371.657 921.656 345.417 934.121C234.18 986.963 44.5629 1035.54 28.8951 1182.09C24.0121 1227.77 47.5146 1260.71 85.2455 1284.86C110.394 1300.95 137.27 1312.4 165.955 1320.69C220.525 1336.48 275.219 1350.16 329.163 1368.16" sodipodi:nodetypes="ccccccccccc"/><path id="shape1" transform="translate(178.92893065116, 17.1735629131933)" fill="none" stroke="#40a56c" stroke-width="25.1879424" stroke-linecap="square" stroke-linejoin="bevel" d="M438.009 0C448.739 175.066 312.572 243.562 176.157 314.415C102.584 352.627 2.53228 379.436 5.67078 480.917C11.107 656.692 480.175 608.219 422.293 793.336C387.204 905.555 213.661 968.556 117.699 1013.53C71.4979 1035.19 -3.71954 1060.76 0.143119 1123.79C1.76954 1150.33 18.9677 1171.93 36.9095 1189.91C122.018 1275.23 246.704 1263.93 357.837 1280.71C388.933 1285.41 419.808 1291.41 451.376 1291.01C454.863 1290.97 494.857 1286.99 495.14 1291.6" sodipodi:nodetypes="cccccccccc"/><path id="shape2" transform="translate(105.020423289219, 13.7574733291518)" fill="none" stroke="#40a56c" stroke-width="25.1879424" stroke-linecap="square" stroke-linejoin="bevel" d="M500.041 0C512.466 202.751 70.2678 254.691 10.549 413.099C-52.759 581.028 184.905 657.714 297.084 693.578C325.149 702.551 426.545 728.145 433.658 761.981C441.384 798.729 348.007 849.425 324.037 862.92C254.525 902.055 176.864 926.618 110.278 971.005C-15.7705 1055.03 -42.8268 1173.42 109.177 1248.39C157.793 1272.37 210.278 1290.34 261.18 1308.76C336.515 1336.03 407.336 1355.15 487.58 1358.9" sodipodi:nodetypes="ccccccccc"/><path id="shape3" transform="translate(52.5656272662155, -17.1103965198141)" fill="none" stroke="#40a56c" stroke-width="25.1879424" stroke-linecap="square" stroke-linejoin="bevel" d="M545.478 0C549.935 72.7198 445.649 133.867 398.02 168.58C276.567 257.097 54.765 342.531 7.5701 493.167C-50.4348 678.305 240.076 710.675 361.993 739.059C407 749.537 488.363 753.469 504.51 806.552C521.169 861.321 426.672 893.576 390.093 909.312C314.859 941.678 235.121 966.3 164.314 1008.1C47.9396 1076.8 -26.969 1204.8 118.729 1290.94C154.23 1311.93 195.57 1322.59 235.321 1332.21C308.998 1350.05 385.886 1346.35 458.951 1365.62" sodipodi:nodetypes="cccccccccc"/><path id="shape4" transform="translate(129.398407528869, -5.90465399186746)" fill="none" stroke="#40a56c" stroke-width="25.1879424" stroke-linecap="square" stroke-linejoin="bevel" d="M470.859 0C482.39 188.157 326.862 247.851 178.534 310.066C120.596 334.368 25.0618 361 5.06958 429.749C-37.9312 577.622 203.728 680.784 310.47 712.016C333.278 718.69 434.902 740.077 444.004 768.173C453.134 796.354 346.438 864.655 328.714 874.477C181.233 956.201 -140.809 1067.27 126.424 1246.2C162.007 1270.03 200.512 1291.8 240.603 1306.82C278.562 1321.03 318.184 1332.64 358.813 1335.34C386.914 1337.2 431.055 1323.9 457.015 1334.56" sodipodi:nodetypes="cccccccccc"/><path id="shape5" transform="translate(163.153042553707, 132.508182364096)" fill="none" stroke="#40a56c" stroke-width="25.1879424" stroke-linecap="square" stroke-linejoin="bevel" d="M440.244 0C449.658 153.611 112.074 206.889 37.9524 286.162C21.2112 304.067 11.9211 331.368 4.95501 354.488C-18.3743 431.917 44.5266 494.564 113.057 517.003C223.852 553.28 413.395 546.348 450.501 688.69C462.354 734.161 418.427 777.413 382.489 797.766C291.036 849.561 138.712 879.456 62.3655 940.724C-7.85148 997.072 13.2366 1071.61 94.1871 1098.75C119.261 1107.16 145.478 1112.02 171.251 1117.8C216.481 1127.95 261.927 1129.31 308.17 1131.33C378.764 1134.42 449.588 1141.06 519.771 1146.39" sodipodi:nodetypes="ccccccccccc"/><path id="shape6" transform="translate(4.59133651365044, -42.6767692433376)" fill="none" stroke="#40a56c" stroke-width="25.1879424" stroke-linecap="square" stroke-linejoin="bevel" d="M546.195 0C530.232 59.8719 552.94 74.6976 499.272 131.121C380.839 255.633 64.5512 293.991 8.12089 461.988C-50.3631 636.099 222.229 731.423 339.725 769.694C370.94 779.861 473.021 794.985 478.086 837.005C480.653 858.299 361.968 941.209 345.434 950.043C250.93 1000.54 -148.851 1148.41 69.2597 1306.56C93.8912 1324.42 116.078 1342.49 142.925 1357.33C186.733 1381.56 232.022 1391.14 281.715 1396.05" sodipodi:nodetypes="ccccccccc"/><path id="shape7" transform="translate(174.281550676405, -0.0529998627163764)" fill="none" stroke="#40a56c" stroke-width="25.1879424" stroke-linecap="square" stroke-linejoin="bevel" d="M419.465 0C474.867 175.284 294.957 295.458 160.051 357.777C106.728 382.409 19.2513 401.282 2.21481 467.342C-13.9977 530.207 62.5207 569.168 110.427 588.955C203.905 627.566 452.357 650.842 470.467 782.377C477.737 835.177 434.303 886.864 395.317 915.555C365.601 937.424 329.099 953.198 295.233 967.491C208.325 1004.17 3.79174 1035.49 13.9978 1168.48C16.7532 1204.38 47.1616 1239.47 76.9853 1256.77C101.487 1270.98 129.704 1280.59 156.879 1288.19C206.895 1302.17 258.816 1307.03 310.531 1309.63C388.227 1313.54 463.057 1330.77 540.116 1337" sodipodi:nodetypes="cccccccccccc"/><path id="shape8" transform="translate(128.637171916706, 29.2064482804069)" fill="none" stroke="#40a56c" stroke-width="25.1879424" stroke-linecap="square" stroke-linejoin="bevel" d="M489.475 0C499.014 155.657 428.031 244.621 286.599 305.239C212.679 336.921 90.5279 364.055 57.2582 447.321C38.8218 493.463 84.9009 536.198 117.166 561.862C180.71 612.408 403.054 657.789 405.391 757.831C406.425 802.131 358.639 856.647 326.288 881.655C216.816 966.276 8.81981 974.352 0.119813 1150.17C-2.74627 1208.1 46.2934 1245.12 95.1133 1266.05C134.696 1283.03 178.095 1291.99 219.443 1303.69C294.8 1325.01 375.034 1329.18 448.898 1353.86" sodipodi:nodetypes="cccccccccc"/><path id="shape9" transform="translate(62.6725496133053, -49.371595817038)" fill="none" stroke="#40a56c" stroke-width="25.1879424" stroke-linecap="square" stroke-linejoin="bevel" d="M504.824 0C503.646 23.8196 505.419 49.2482 498.016 72.1736C461.166 186.28 342.613 301.138 248.143 366.77C156.151 430.68 90.6269 441.058 50.1791 551.096C41.0751 575.863 31.8199 599.847 34.6487 626.857C43.516 711.527 181.961 719.399 242.784 734.822C288.631 746.448 333.456 759.556 378.627 773.498C413.476 784.255 489.217 810.045 484.23 857.867C482.811 871.467 469.602 888.155 462.345 899.339C371.661 1039.1 185.506 1048.15 52.8814 1125.42C-38.5277 1178.67 2.59154 1288.59 70.6079 1339.93C98.5738 1361.04 130.814 1374.29 163.24 1387.03C222.63 1410.36 281.711 1434.09 340.677 1458.49" sodipodi:nodetypes="ccccccccccccc"/><path id="shape10" transform="translate(17.9882121033461, -9.4592734303875)" fill="none" stroke="#40a56c" stroke-width="25.1879424" stroke-linecap="square" stroke-linejoin="bevel" d="M551.3 0C508.95 158.78 294.5 253.776 165.979 328.198C106.763 362.487 30.2419 372.729 7.22305 445.889C-5.6165 486.696 0.010081 530.347 13.5366 570.258C48.476 673.347 138.469 706.526 233.943 737.885C266.41 748.549 298.521 763.991 331.669 772.027C371.425 781.665 420.091 783.136 453.5 809.817C469.554 822.638 491.307 868.691 497.801 888.564C516.138 944.682 453.607 977.141 414.128 1001.87C315.291 1063.79 71.0776 1102.22 172.337 1277.11C187.901 1303.99 208.641 1326.68 234.454 1344.07C276.721 1372.56 324.997 1391.52 369.606 1415.95" sodipodi:nodetypes="cccccccccccc"/><path id="shape11" transform="translate(1.88536877638625, -51.025390621932)" fill="none" stroke="#40a56c" stroke-width="25.1879424" stroke-linecap="square" stroke-linejoin="bevel" d="M565.611 1.65379C563.134 -6.81061 564.57 19.5623 561.323 27.762C553.524 47.4538 542.525 66.4421 529.719 83.2435C490.124 135.194 436.844 179.302 385.491 219.128C298.255 286.784 -12.8506 483 0.411487 617.105C13.7937 752.423 375.483 788.947 474.893 816.708C519.627 829.2 607.791 839.526 617.093 898.615C625.196 950.078 526.52 1009.24 486.875 1026.44C419.828 1055.54 346.834 1080.98 276.517 1101.06C201.624 1122.45 111.793 1131.33 47.7281 1179.2C-16.4822 1227.19 52.9382 1319.23 100.015 1352.66C132.757 1375.91 169.53 1390.83 208.009 1401.33" sodipodi:nodetypes="cccccccccccc"/><path id="shape12" transform="translate(10.8974183364689, -22.7459393486805)" fill="none" stroke="#9ee4bc" stroke-width="25.1879424" stroke-linecap="square" stroke-linejoin="bevel" d="M550.514 0C550.514 75.7778 467.701 137.719 413.925 179.047C271.403 288.576 69.3634 302.786 5.47767 508.651C-3.90272 538.878 -0.790889 572.655 11.4204 601.57C24.6316 632.853 49.5876 664.65 79.9037 680.905C146.307 716.511 286.13 728.464 366.854 750.524C404.479 760.806 471.779 772.321 490.52 812.596C508.811 851.903 462.187 907.199 439.394 932.967C414.686 960.899 387.25 985.058 355.912 1005.32C299.814 1041.59 124.311 1109.43 180.082 1198.24C199.919 1229.82 223.555 1248.81 258.092 1263.51C297.296 1280.21 338.023 1294.65 378.457 1308.04C442.637 1329.3 506.723 1342.84 572.776 1356.34" sodipodi:nodetypes="ccccccccccccc"/><path id="shape13" transform="translate(83.4275489108822, 75.6448297448094)" fill="none" stroke="#9ee4bc" stroke-width="25.1879424" stroke-linecap="square" stroke-linejoin="bevel" d="M517.602 0C509.205 123.176 376.027 229.905 270.459 272.06C216.336 293.672 124.331 302.776 102.269 367.715C61.2852 488.353 176.927 497 261.592 519.499C298.997 529.44 431.902 584.061 452.326 619.211C457.081 627.394 456.252 638.172 455.816 647.228C448.5 799.42 231.717 913.694 126.512 996.359C84.2962 1029.53 2.06382 1064.65 0.0158621 1128.14C-1.41735 1172.58 94.6704 1253.22 126.7 1273.42C161.003 1295.05 198.463 1317.54 237.915 1328.23" sodipodi:nodetypes="cccccccccc"/><path id="shape14" transform="translate(80.4169435821529, 11.1201191317478)" fill="none" stroke="#9ee4bc" stroke-width="25.1879424" stroke-linecap="square" stroke-linejoin="bevel" d="M340.538 1323.61C291.944 1323.61 236.563 1296.78 190.648 1281.53C154.907 1269.66 121.959 1256.74 89.4323 1237.48C59.3757 1219.68 13.0211 1193.84 2.08318 1157.58C-25.7177 1065.42 232.959 971.852 288.373 941.834C331.516 918.464 364.909 885.829 401.946 854.386C422.947 836.557 494.981 768.576 491.276 740.619C486.41 703.899 383.61 690.879 356.951 686.094C315.949 678.734 273.053 675.635 234.7 657.982C178.791 632.249 35.4291 519.051 51.3232 449.692C93.9178 263.815 526.701 230.068 540.233 0" sodipodi:nodetypes="ccccccccccc"/><path id="shape15" transform="translate(33.0807972165838, -21.6139073379972)" fill="none" stroke="#9ee4bc" stroke-width="25.1879424" stroke-linecap="square" stroke-linejoin="bevel" d="M545.97 0C540.244 62.9957 452.259 108.243 408.438 141.69C282.188 238.052 90.7969 315.91 49.042 487.237C11.0298 643.207 129.189 676.249 251.19 710.904C299.965 724.758 348.217 739.749 397.212 752.977C429.999 761.829 532.002 781.611 538.801 824.671C546.964 876.37 468.844 935.853 430.416 953.249C348.958 990.124 33.5854 1067.88 2.63186 1154.56C-3.77975 1172.51 2.81535 1197.37 8.66894 1214.46C24.735 1261.37 65.3165 1302.59 106.206 1329.27C148.578 1356.91 198.152 1374.37 244.398 1394.26" sodipodi:nodetypes="ccccccccccc"/><path id="shape16" transform="translate(50.146534107366, -17.1103965198141)" fill="none" stroke="#40a56c" stroke-width="25.1879424" stroke-linecap="square" stroke-linejoin="bevel" d="M547.897 0C545.056 2.76738 545.007 27.6338 541.922 33.6076C523.427 69.4132 482.622 96.509 450.234 118.225C393.102 156.532 326.537 175.775 266.574 208.409C135.293 279.858 -121.649 454.264 66.6895 612.16C160.079 690.455 299.164 693.601 409.766 732.437C445.943 745.139 509.484 765.069 515.415 810.828C522.712 867.118 452.362 903.116 411.37 922.143C271.499 987.064 39.5608 1039.11 30.467 1228.73C27.2251 1296.33 76.5606 1342 132.532 1370.51C171.514 1390.38 214.384 1398.35 256.669 1407.96" sodipodi:nodetypes="ccccccccccc"/><path id="shape17" transform="translate(56.9665510427777, 13.5025424128811)" fill="none" stroke="#40a56c" stroke-width="25.1879424" stroke-linecap="square" stroke-linejoin="bevel" d="M548.094 0.254931C540.711 -2.27491 546.132 14.7179 546.327 20.5408C547.109 43.8612 544.296 66.8997 536.234 88.9333C517.262 140.778 468.885 171.755 422.661 196.757C283.3 272.137 54.0098 314.816 10.3465 484.571C2.59777 514.697 -4.07116 547.902 2.98881 578.906C36.5854 726.447 229.794 718.732 343.424 732.86C389.838 738.63 477.43 752.58 496.427 805.214C510.181 843.322 430.068 906.406 403.229 922.377C307.825 979.149 53.6505 987.368 78.4525 1145.76C85.0998 1188.21 105.126 1219.88 142.785 1241.6C166.6 1255.34 192.352 1264.39 219.098 1270.47C283.007 1285 347.8 1290.42 409.078 1315" sodipodi:nodetypes="ccccccccccccc"/><path id="shape18" transform="translate(55.7578788852063, 155.480687821607)" fill="none" stroke="#40a56c" stroke-width="25.1879424" stroke-linecap="square" stroke-linejoin="bevel" d="M542.451 0C474.135 173.238 35.302 162.036 80.3565 382.737C103.587 496.534 303.681 504.512 388.802 545.71C423.505 562.506 489.937 596.757 483.238 644.872C477.398 686.813 424.291 717.815 393.269 738.929C283.319 813.765 149.125 852.237 44.3691 935.211C-14.5206 981.857 -21.8647 1055.39 65.8084 1072.28C100.653 1078.99 136.318 1081.75 171.346 1087.34C228.739 1096.49 284.809 1111.69 341.968 1121.92C418.429 1135.6 499.834 1137.94 573.717 1163.27" sodipodi:nodetypes="cccccccccc"/><path id="shape19" transform="translate(95.5502596893548, 30.1562182160655)" fill="none" stroke="#27764a" stroke-width="25.1879424" stroke-linecap="square" stroke-linejoin="bevel" d="M468.585 0C498.154 31.5414 403.588 115.671 386.401 128.004C258.921 219.486 50.2197 254.808 4.32146 430.34C-5.49757 467.892 2.56228 501.142 22.4428 533.714C75.0643 619.928 175.643 648.67 268.102 671.545C319.864 684.352 409.277 698.417 428.131 760.37C446.383 820.342 351.381 856.389 312.002 874.336C194.024 928.104 12.1061 952.912 0.365399 1111.2C-2.94265 1155.8 16.4423 1192.83 49.1144 1222.36C74.7816 1245.56 106.111 1265.33 138.062 1278.51C195.884 1302.37 259.177 1308.56 320.679 1315.52" sodipodi:nodetypes="ccccccccccc"/><path id="shape20" transform="translate(52.0165510400589, 75.4618809476746)" fill="none" stroke="#27764a" stroke-width="25.1879424" stroke-linecap="square" stroke-linejoin="bevel" d="M518.883 1230.15C461.286 1243.55 404.784 1263.12 346.092 1270.35C244.39 1282.87 27.9052 1163.98 93.9242 1029.52C142.22 931.159 334.611 896.09 429.297 855.576C479.078 834.275 559.866 796.436 547.596 728.209C539.521 683.31 422.238 660.946 387.822 655.592C249.567 634.085 -45.166 589.501 5.8698 389.501C17.4737 344.028 44.7315 307.653 78.2276 275.918C122.982 233.517 175.602 203.554 233.408 182.244C347.285 140.263 555.789 142.057 602.343 0" sodipodi:nodetypes="cccccccccc"/><path id="shape21" transform="translate(20.1876490696412, -9.4592734303875)" fill="none" stroke="#27764a" stroke-width="25.1879424" stroke-linecap="square" stroke-linejoin="bevel" d="M549.101 0C541.671 4.62323 545.822 59.9326 542.927 69.3513C530.828 108.716 504.587 141.109 476.312 170.3C441.106 206.647 399.518 234.724 355.46 259.252C250.368 317.761 46.8544 394.044 155.615 549.592C225.53 649.583 343.402 663.699 449.385 700.696C489.454 714.683 538.212 756.596 520.594 805.473C502.968 854.374 388.799 874.7 346.272 892.511C297.554 912.915 249.216 935.311 205.513 965.255C146.942 1005.39 3.4294 1125.26 0.0522298 1200.97C-1.17252 1228.43 19.3928 1249.24 35.4016 1269.12C99.0918 1348.24 184.555 1371 283.103 1375.43" sodipodi:nodetypes="cccccccccccc"/><path id="shape22" transform="translate(21.3118520752318, -7.49215547070843)" fill="none" stroke="#27764a" stroke-width="25.1879424" stroke-linecap="square" stroke-linejoin="bevel" d="M530.956 1309.14C418.356 1300.51 304.179 1303.91 193.158 1283.24C86.6865 1263.41 174.497 1133.39 186.65 1097.55C206.615 1038.66 577.109 932.714 543.334 809.121C527.324 750.534 434.658 745.157 385.091 734.463C240.668 703.303 147.655 714.139 44.9971 593.185C17.1386 560.362 -4.96288 526.229 0.969841 480.368C18.9845 341.112 335.533 242.08 437.414 167.695C486.304 131.999 564.051 68.1523 555.841 0" sodipodi:nodetypes="ccccccccc"/><path id="shape23" transform="translate(63.2052124894006, 33.2191194807988)" fill="none" stroke="#40a56c" stroke-width="25.1879424" stroke-linecap="square" stroke-linejoin="bevel" d="M493.146 0C528.105 46.6147 414.913 107.842 386.077 121.623C301.138 162.216 32.8118 290.058 18.2899 387.842C0.660212 506.554 160.157 536.323 242.382 572.894C292.73 595.287 336.99 620.745 382.759 650.871C415.81 672.625 466.453 697.251 478.853 738.674C494.13 789.707 360.838 848.436 326.736 867.317C248.761 910.488 -13.6034 1042.55 0.551418 1153.7C5.8443 1195.26 51.6427 1225.33 82.9908 1246.61C108.069 1263.63 134.32 1277.28 161.602 1290.38C222.689 1319.73 285.761 1336.08 350.472 1354.96" sodipodi:nodetypes="ccccccccccc"/><path id="shape24" transform="translate(5.8677394807629, 19.0531562776551)" fill="none" stroke="#40a56c" stroke-width="25.1879424" stroke-linecap="square" stroke-linejoin="bevel" d="M602.168 0C628.188 83.2688 522.754 150.746 458.345 175.735C394.646 200.448 324.711 204.775 261.435 230.995C192.775 259.446 19.9844 393.31 1.99347 469.775C-11.4978 527.116 46.3578 568.538 89.1546 592.93C180.788 645.158 294.597 656.688 397.218 671.29C439.753 677.342 513.079 683.37 528.023 733.952C564.297 856.732 364.901 939.056 279.301 965.968C233.158 980.475 185.529 978.934 140.839 1000.81C4.76255 1067.41 3.73504 1156.6 123.1 1248.4C156.596 1274.15 192.445 1291.55 231.701 1306.85C292.525 1330.55 353.821 1341.97 418.274 1350.62" sodipodi:nodetypes="cccccccccccc"/><path id="shape25" transform="translate(56.5399071252123, 8.20529424780372)" fill="none" stroke="#40a56c" stroke-width="25.1879424" stroke-linecap="square" stroke-linejoin="bevel" d="M570.255 1257.58C562.821 1257.58 504.273 1280.88 490.368 1283.36C444.489 1291.55 397.817 1282.41 351.65 1284.51C301.355 1286.81 252.806 1298.33 202.085 1295.62C115.203 1290.97 49.8958 1281.88 55.5829 1179.86C57.6458 1142.86 63.7233 1110.04 91.1875 1083C129.214 1045.55 182.715 1028.01 230.798 1007.45C306.723 974.976 391.804 942.494 460.889 896.797C505.414 867.346 566.595 822.732 545.115 760.115C524.709 700.632 458.179 705.097 406.907 707.024C355.293 708.964 303.514 714.223 252.238 704.727C169.743 689.449 -17.6735 594.017 1.34644 490.195C31.8465 323.707 196.983 298.118 324.851 249.245C364.638 234.038 402.013 211.809 439.194 191.305C513.439 150.361 600.55 95.0454 591.822 0" sodipodi:nodetypes="ccccccccccccccc"/><path id="shape26" transform="translate(71.1849615768722, 86.1821430232463)" fill="none" stroke="#40a56c" stroke-width="25.1879424" stroke-linecap="square" stroke-linejoin="bevel" d="M528.683 0C524.549 33.0799 413.599 92.4267 389.072 107.713C312.069 155.703 242.96 212.466 170.084 266.219C115.494 306.484 21.1765 341.634 2.01521 415.408C-12.9361 472.974 58.7812 508.649 102.448 527.46C175.711 559.021 485.486 575.108 495.12 670.652C502.296 741.821 376.395 760.955 329.603 782.066C193.438 843.496 23.2493 923.889 11.8416 1093.59C8.03915 1150.15 25.8599 1203.47 60.8458 1248.39C97.4173 1295.35 152.472 1314.07 206.582 1333.52" sodipodi:nodetypes="cccccccccc"/><path id="shape27" transform="translate(53.5503479861816, 2.33469162689613)" fill="none" stroke="#40a56c" stroke-width="25.1879424" stroke-linecap="square" stroke-linejoin="bevel" d="M500.376 0C458.206 126.533 271.747 250.286 165.386 322.117C110.356 359.282 38.4672 376.682 11.6101 444.889C0.535177 473.015 -6.82123 531.265 9.56821 558.855C37.5892 606.026 180.261 640.988 230.598 664.526C270.288 683.086 380.514 747.313 385.778 800.826C391.156 855.507 313.185 885.857 277.815 909.177C171.909 979 -36.7897 1079.71 46.0661 1238.82C64.6063 1274.43 90.1973 1305.32 119.572 1332.5C159.365 1369.31 202.54 1395.61 250.378 1420.56" sodipodi:nodetypes="cccccccccc"/>
</svg>
