<?xml version="1.0" standalone="no"?>
<!DOCTYPE svg PUBLIC "-//W3C//DTD SVG 20010904//EN" "http://www.w3.org/TR/2001/REC-SVG-20010904/DTD/svg10.dtd">
<!-- Created using Krita: https://krita.org -->
<svg xmlns="http://www.w3.org/2000/svg" 
    xmlns:xlink="http://www.w3.org/1999/xlink"
    xmlns:krita="http://krita.org/namespaces/svg/krita"
    xmlns:sodipodi="http://sodipodi.sourceforge.net/DTD/sodipodi-0.dtd"
    width="72pt"
    height="72pt"
    viewBox="0 0 72 72">
<defs>
  <linearGradient id="gradient0" gradientUnits="objectBoundingBox" x1="0.508259908607926" y1="0.0135721768070018" x2="0.49125365293635" y2="1.01507429016545" spreadMethod="pad">
   <stop stop-color="#098c82" offset="0" stop-opacity="1"/>
   <stop stop-color="#5597a0" offset="1" stop-opacity="1"/>
  </linearGradient>
  <linearGradient id="gradient1" gradientUnits="objectBoundingBox" x1="0.460724610033591" y1="0.0117565625512954" x2="0.496216220179686" y2="0.995567181969007" spreadMethod="pad">
   <stop stop-color="#098c82" offset="0" stop-opacity="1"/>
   <stop stop-color="#5597a0" offset="1" stop-opacity="1"/>
  </linearGradient>
 </defs>
<g id="group0" transform="matrix(0.999260159212036 -0.0384595139274565 0.0384595139274565 0.999260159212036 11.6972621346648 2.68487426628894)" fill="none">
  <path id="shape0" transform="matrix(0.980591380278854 -0.0247608094197079 0.0250648347278167 0.992631560042957 -1.33226762955019e-15 34.3837310533034)" fill="url(#gradient0)" fill-rule="evenodd" stroke="none" stroke-width="5.0664" stroke-linecap="square" stroke-linejoin="round" d="M0 33.7373C0.0966357 33.9667 0.199092 20.831 1.49281 15.269C3.79459 5.37307 12.2679 -0.400986 22.0162 0.0217076C34.7422 0.499241 42.5604 9.68993 42.3493 21.124C42.2981 22.4787 41.3537 35.0169 41.1494 33.2897C41.0132 32.1383 41.0186 32.1151 41.1657 33.2201L0.0855481 33.9063C0.557578 29.01 0.529062 28.9537 0 33.7373Z" sodipodi:nodetypes="cccccccc"/>
  <ellipse id="shape1" transform="matrix(0.999260159212036 0.0384595139274565 -0.0384595139274565 0.999260159212036 4.83482688032225 -4.44089209850063e-16)" rx="16.2124802729961" ry="14.5218881210055" cx="16.2124802729961" cy="14.5218881210055" fill="url(#gradient1)" fill-rule="evenodd" stroke="none" stroke-width="5.0664" stroke-linecap="square" stroke-linejoin="bevel"/>
 </g>
</svg>
